<mxfile host="app.diagrams.net" agent="Mozilla/5.0 (X11; Ubuntu; Linux x86_64; rv:130.0) Gecko/20100101 Firefox/130.0" version="24.7.16">
  <diagram name="Page-1" id="b5b7bab2-c9e2-2cf4-8b2a-24fd1a2a6d21">
    <mxGraphModel dx="714" dy="596" grid="1" gridSize="10" guides="1" tooltips="1" connect="1" arrows="1" fold="1" page="1" pageScale="1" pageWidth="827" pageHeight="1169" background="none" math="0" shadow="0">
      <root>
        <mxCell id="0" />
        <mxCell id="1" parent="0" />
        <mxCell id="6e0c8c40b5770093-72" value="" style="shape=folder;fontStyle=1;spacingTop=10;tabWidth=194;tabHeight=22;tabPosition=left;html=1;rounded=0;shadow=0;comic=0;labelBackgroundColor=none;strokeWidth=1;fillColor=none;fontFamily=Verdana;fontSize=10;align=center;" parent="1" vertex="1">
          <mxGeometry x="20" y="13" width="1001" height="745.5" as="geometry" />
        </mxCell>
        <mxCell id="6e0c8c40b5770093-73" value="Frontend plan" style="text;html=1;align=left;verticalAlign=top;spacingTop=-4;fontSize=10;fontFamily=Verdana" parent="1" vertex="1">
          <mxGeometry x="21" y="13" width="130" height="20" as="geometry" />
        </mxCell>
        <mxCell id="JMxXBcDuFq-GakgdSsCB-2" value="" style="group" vertex="1" connectable="0" parent="1">
          <mxGeometry x="33.5" y="45.5" width="230" height="693" as="geometry" />
        </mxCell>
        <mxCell id="JMxXBcDuFq-GakgdSsCB-3" value="&amp;nbsp;" style="text;whiteSpace=wrap;html=1;" vertex="1" parent="JMxXBcDuFq-GakgdSsCB-2">
          <mxGeometry x="40" y="313" width="40" height="40" as="geometry" />
        </mxCell>
        <mxCell id="JMxXBcDuFq-GakgdSsCB-4" value="" style="shape=folder;fontStyle=1;spacingTop=10;tabWidth=123;tabHeight=24;tabPosition=left;html=1;rounded=0;shadow=0;comic=0;labelBackgroundColor=none;strokeWidth=1;fontFamily=Verdana;fontSize=10;align=center;" vertex="1" parent="JMxXBcDuFq-GakgdSsCB-2">
          <mxGeometry y="3" width="230" height="437" as="geometry" />
        </mxCell>
        <mxCell id="JMxXBcDuFq-GakgdSsCB-5" value="" style="triangle;whiteSpace=wrap;html=1;rounded=0;shadow=0;comic=0;labelBackgroundColor=none;strokeWidth=1;fontFamily=Verdana;fontSize=10;align=center;rotation=-90;" vertex="1" parent="JMxXBcDuFq-GakgdSsCB-2">
          <mxGeometry x="100" y="5" width="15" height="20" as="geometry" />
        </mxCell>
        <mxCell id="JMxXBcDuFq-GakgdSsCB-6" value="model" style="shape=folder;fontStyle=1;spacingTop=10;tabWidth=50;tabHeight=17;tabPosition=left;html=1;rounded=0;shadow=0;comic=0;labelBackgroundColor=none;strokeWidth=1;fontFamily=Verdana;fontSize=10;align=center;" vertex="1" parent="JMxXBcDuFq-GakgdSsCB-2">
          <mxGeometry x="59" y="53" width="112" height="70" as="geometry" />
        </mxCell>
        <mxCell id="JMxXBcDuFq-GakgdSsCB-8" value="service" style="shape=folder;fontStyle=1;spacingTop=10;tabWidth=50;tabHeight=17;tabPosition=left;html=1;rounded=0;shadow=0;comic=0;labelBackgroundColor=none;strokeWidth=1;fontFamily=Verdana;fontSize=10;align=center;" vertex="1" parent="JMxXBcDuFq-GakgdSsCB-2">
          <mxGeometry x="59" y="153" width="112" height="70" as="geometry" />
        </mxCell>
        <mxCell id="JMxXBcDuFq-GakgdSsCB-9" value="ui" style="shape=folder;fontStyle=1;spacingTop=10;tabWidth=50;tabHeight=17;tabPosition=left;html=1;rounded=0;shadow=0;comic=0;labelBackgroundColor=none;strokeWidth=1;fontFamily=Verdana;fontSize=10;align=center;" vertex="1" parent="JMxXBcDuFq-GakgdSsCB-2">
          <mxGeometry x="60" y="345" width="112" height="70" as="geometry" />
        </mxCell>
        <mxCell id="JMxXBcDuFq-GakgdSsCB-11" value="&lt;div&gt;packages&lt;/div&gt;" style="text;strokeColor=none;align=center;fillColor=none;html=1;verticalAlign=middle;whiteSpace=wrap;rounded=0;" vertex="1" parent="JMxXBcDuFq-GakgdSsCB-2">
          <mxGeometry width="60" height="30" as="geometry" />
        </mxCell>
        <mxCell id="JMxXBcDuFq-GakgdSsCB-47" value="repository" style="shape=folder;fontStyle=1;spacingTop=10;tabWidth=50;tabHeight=17;tabPosition=left;html=1;rounded=0;shadow=0;comic=0;labelBackgroundColor=none;strokeWidth=1;fontFamily=Verdana;fontSize=10;align=center;" vertex="1" parent="JMxXBcDuFq-GakgdSsCB-2">
          <mxGeometry x="59" y="243" width="112" height="70" as="geometry" />
        </mxCell>
        <mxCell id="JMxXBcDuFq-GakgdSsCB-12" value="" style="group" vertex="1" connectable="0" parent="1">
          <mxGeometry x="303.5" y="48.5" width="460" height="133" as="geometry" />
        </mxCell>
        <mxCell id="JMxXBcDuFq-GakgdSsCB-13" value="" style="shape=folder;fontStyle=1;spacingTop=10;tabWidth=123;tabHeight=24;tabPosition=left;html=1;rounded=0;shadow=0;comic=0;labelBackgroundColor=none;strokeWidth=1;fontFamily=Verdana;fontSize=10;align=center;" vertex="1" parent="JMxXBcDuFq-GakgdSsCB-12">
          <mxGeometry y="3" width="460" height="130" as="geometry" />
        </mxCell>
        <mxCell id="JMxXBcDuFq-GakgdSsCB-14" value="" style="triangle;whiteSpace=wrap;html=1;rounded=0;shadow=0;comic=0;labelBackgroundColor=none;strokeWidth=1;fontFamily=Verdana;fontSize=10;align=center;rotation=-90;" vertex="1" parent="JMxXBcDuFq-GakgdSsCB-12">
          <mxGeometry x="96" y="5" width="15" height="20" as="geometry" />
        </mxCell>
        <mxCell id="JMxXBcDuFq-GakgdSsCB-15" value="model" style="text;strokeColor=none;align=center;fillColor=none;html=1;verticalAlign=middle;whiteSpace=wrap;rounded=0;" vertex="1" parent="JMxXBcDuFq-GakgdSsCB-12">
          <mxGeometry width="60" height="30" as="geometry" />
        </mxCell>
        <mxCell id="JMxXBcDuFq-GakgdSsCB-16" value="" style="group" vertex="1" connectable="0" parent="JMxXBcDuFq-GakgdSsCB-12">
          <mxGeometry x="10" y="53" width="120" height="60" as="geometry" />
        </mxCell>
        <mxCell id="JMxXBcDuFq-GakgdSsCB-17" value="" style="rounded=0;whiteSpace=wrap;html=1;" vertex="1" parent="JMxXBcDuFq-GakgdSsCB-16">
          <mxGeometry width="120" height="60" as="geometry" />
        </mxCell>
        <mxCell id="JMxXBcDuFq-GakgdSsCB-18" value="Ingredient" style="text;strokeColor=none;align=center;fillColor=none;html=1;verticalAlign=middle;whiteSpace=wrap;rounded=0;fontStyle=1" vertex="1" parent="JMxXBcDuFq-GakgdSsCB-16">
          <mxGeometry x="26" y="15" width="60" height="30" as="geometry" />
        </mxCell>
        <mxCell id="JMxXBcDuFq-GakgdSsCB-19" value="" style="group" vertex="1" connectable="0" parent="JMxXBcDuFq-GakgdSsCB-12">
          <mxGeometry x="160" y="53" width="120" height="60" as="geometry" />
        </mxCell>
        <mxCell id="JMxXBcDuFq-GakgdSsCB-20" value="" style="rounded=0;whiteSpace=wrap;html=1;" vertex="1" parent="JMxXBcDuFq-GakgdSsCB-19">
          <mxGeometry width="120" height="60" as="geometry" />
        </mxCell>
        <mxCell id="JMxXBcDuFq-GakgdSsCB-21" value="Recipe" style="text;strokeColor=none;align=center;fillColor=none;html=1;verticalAlign=middle;whiteSpace=wrap;rounded=0;fontStyle=1" vertex="1" parent="JMxXBcDuFq-GakgdSsCB-19">
          <mxGeometry x="26" y="15" width="60" height="30" as="geometry" />
        </mxCell>
        <mxCell id="JMxXBcDuFq-GakgdSsCB-22" value="" style="group" vertex="1" connectable="0" parent="JMxXBcDuFq-GakgdSsCB-12">
          <mxGeometry x="310" y="53" width="120" height="60" as="geometry" />
        </mxCell>
        <mxCell id="JMxXBcDuFq-GakgdSsCB-23" value="" style="rounded=0;whiteSpace=wrap;html=1;" vertex="1" parent="JMxXBcDuFq-GakgdSsCB-22">
          <mxGeometry width="120" height="60" as="geometry" />
        </mxCell>
        <mxCell id="JMxXBcDuFq-GakgdSsCB-24" value="ShoppingList" style="text;strokeColor=none;align=center;fillColor=none;html=1;verticalAlign=middle;whiteSpace=wrap;rounded=0;fontStyle=1" vertex="1" parent="JMxXBcDuFq-GakgdSsCB-22">
          <mxGeometry x="26" y="15" width="60" height="30" as="geometry" />
        </mxCell>
        <mxCell id="JMxXBcDuFq-GakgdSsCB-36" value="" style="shape=folder;fontStyle=1;spacingTop=10;tabWidth=123;tabHeight=24;tabPosition=left;html=1;rounded=0;shadow=0;comic=0;labelBackgroundColor=none;strokeWidth=1;fontFamily=Verdana;fontSize=10;align=center;" vertex="1" parent="1">
          <mxGeometry x="305.5" y="501.5" width="692" height="227" as="geometry" />
        </mxCell>
        <mxCell id="JMxXBcDuFq-GakgdSsCB-37" value="mainactivity" style="shape=folder;fontStyle=1;spacingTop=10;tabWidth=50;tabHeight=17;tabPosition=left;html=1;rounded=0;shadow=0;comic=0;labelBackgroundColor=none;strokeWidth=1;fontFamily=Verdana;fontSize=10;align=center;" vertex="1" parent="1">
          <mxGeometry x="317.5" y="541.5" width="112" height="70" as="geometry" />
        </mxCell>
        <mxCell id="JMxXBcDuFq-GakgdSsCB-38" value="" style="triangle;whiteSpace=wrap;html=1;rounded=0;shadow=0;comic=0;labelBackgroundColor=none;strokeWidth=1;fontFamily=Verdana;fontSize=10;align=center;rotation=-90;" vertex="1" parent="1">
          <mxGeometry x="394.5" y="503.5" width="15" height="20" as="geometry" />
        </mxCell>
        <mxCell id="JMxXBcDuFq-GakgdSsCB-39" value="ui" style="text;strokeColor=none;align=center;fillColor=none;html=1;verticalAlign=middle;whiteSpace=wrap;rounded=0;" vertex="1" parent="1">
          <mxGeometry x="303.5" y="498.5" width="60" height="30" as="geometry" />
        </mxCell>
        <mxCell id="JMxXBcDuFq-GakgdSsCB-40" value="addingredient" style="shape=folder;fontStyle=1;spacingTop=10;tabWidth=50;tabHeight=17;tabPosition=left;html=1;rounded=0;shadow=0;comic=0;labelBackgroundColor=none;strokeWidth=1;fontFamily=Verdana;fontSize=10;align=center;" vertex="1" parent="1">
          <mxGeometry x="457.5" y="541.5" width="112" height="70" as="geometry" />
        </mxCell>
        <mxCell id="JMxXBcDuFq-GakgdSsCB-54" value="" style="group" vertex="1" connectable="0" parent="1">
          <mxGeometry x="305.5" y="355.5" width="328" height="123" as="geometry" />
        </mxCell>
        <mxCell id="JMxXBcDuFq-GakgdSsCB-48" value="" style="shape=folder;fontStyle=1;spacingTop=10;tabWidth=123;tabHeight=24;tabPosition=left;html=1;rounded=0;shadow=0;comic=0;labelBackgroundColor=none;strokeWidth=1;fontFamily=Verdana;fontSize=10;align=center;" vertex="1" parent="JMxXBcDuFq-GakgdSsCB-54">
          <mxGeometry y="3" width="328" height="120" as="geometry" />
        </mxCell>
        <mxCell id="JMxXBcDuFq-GakgdSsCB-44" value="" style="group" vertex="1" connectable="0" parent="JMxXBcDuFq-GakgdSsCB-54">
          <mxGeometry x="168" y="43" width="130" height="60" as="geometry" />
        </mxCell>
        <mxCell id="JMxXBcDuFq-GakgdSsCB-45" value="" style="rounded=0;whiteSpace=wrap;html=1;" vertex="1" parent="JMxXBcDuFq-GakgdSsCB-44">
          <mxGeometry width="130" height="60" as="geometry" />
        </mxCell>
        <mxCell id="JMxXBcDuFq-GakgdSsCB-46" value="RecipeRepository" style="text;strokeColor=none;align=center;fillColor=none;html=1;verticalAlign=middle;whiteSpace=wrap;rounded=0;fontStyle=1" vertex="1" parent="JMxXBcDuFq-GakgdSsCB-44">
          <mxGeometry x="36" y="15" width="60" height="30" as="geometry" />
        </mxCell>
        <mxCell id="JMxXBcDuFq-GakgdSsCB-43" value="" style="group" vertex="1" connectable="0" parent="JMxXBcDuFq-GakgdSsCB-54">
          <mxGeometry x="12" y="43" width="130" height="60" as="geometry" />
        </mxCell>
        <mxCell id="JMxXBcDuFq-GakgdSsCB-49" value="" style="group" vertex="1" connectable="0" parent="JMxXBcDuFq-GakgdSsCB-43">
          <mxGeometry width="130" height="60" as="geometry" />
        </mxCell>
        <mxCell id="JMxXBcDuFq-GakgdSsCB-41" value="" style="rounded=0;whiteSpace=wrap;html=1;" vertex="1" parent="JMxXBcDuFq-GakgdSsCB-49">
          <mxGeometry width="130" height="60" as="geometry" />
        </mxCell>
        <mxCell id="JMxXBcDuFq-GakgdSsCB-42" value="&lt;div&gt;IngredientRepository&lt;/div&gt;" style="text;strokeColor=none;align=center;fillColor=none;html=1;verticalAlign=middle;whiteSpace=wrap;rounded=0;fontStyle=1" vertex="1" parent="JMxXBcDuFq-GakgdSsCB-49">
          <mxGeometry x="36" y="15" width="60" height="30" as="geometry" />
        </mxCell>
        <mxCell id="JMxXBcDuFq-GakgdSsCB-51" value="repository" style="text;strokeColor=none;align=center;fillColor=none;html=1;verticalAlign=middle;whiteSpace=wrap;rounded=0;" vertex="1" parent="JMxXBcDuFq-GakgdSsCB-54">
          <mxGeometry x="3" width="60" height="30" as="geometry" />
        </mxCell>
        <mxCell id="JMxXBcDuFq-GakgdSsCB-53" value="" style="triangle;whiteSpace=wrap;html=1;rounded=0;shadow=0;comic=0;labelBackgroundColor=none;strokeWidth=1;fontFamily=Verdana;fontSize=10;align=center;rotation=-90;" vertex="1" parent="JMxXBcDuFq-GakgdSsCB-54">
          <mxGeometry x="93" y="4" width="15" height="20" as="geometry" />
        </mxCell>
        <mxCell id="JMxXBcDuFq-GakgdSsCB-55" value="" style="group" vertex="1" connectable="0" parent="1">
          <mxGeometry x="301.5" y="205.5" width="322" height="123" as="geometry" />
        </mxCell>
        <mxCell id="JMxXBcDuFq-GakgdSsCB-25" value="" style="shape=folder;fontStyle=1;spacingTop=10;tabWidth=123;tabHeight=24;tabPosition=left;html=1;rounded=0;shadow=0;comic=0;labelBackgroundColor=none;strokeWidth=1;fontFamily=Verdana;fontSize=10;align=center;" vertex="1" parent="JMxXBcDuFq-GakgdSsCB-55">
          <mxGeometry x="2" y="3" width="320" height="120" as="geometry" />
        </mxCell>
        <mxCell id="JMxXBcDuFq-GakgdSsCB-26" value="" style="triangle;whiteSpace=wrap;html=1;rounded=0;shadow=0;comic=0;labelBackgroundColor=none;strokeWidth=1;fontFamily=Verdana;fontSize=10;align=center;rotation=-90;" vertex="1" parent="JMxXBcDuFq-GakgdSsCB-55">
          <mxGeometry x="96" y="5" width="15" height="20" as="geometry" />
        </mxCell>
        <mxCell id="JMxXBcDuFq-GakgdSsCB-27" value="service" style="text;strokeColor=none;align=center;fillColor=none;html=1;verticalAlign=middle;whiteSpace=wrap;rounded=0;" vertex="1" parent="JMxXBcDuFq-GakgdSsCB-55">
          <mxGeometry width="60" height="30" as="geometry" />
        </mxCell>
        <mxCell id="JMxXBcDuFq-GakgdSsCB-29" value="" style="group" vertex="1" connectable="0" parent="JMxXBcDuFq-GakgdSsCB-55">
          <mxGeometry x="12" y="43" width="140" height="60" as="geometry" />
        </mxCell>
        <mxCell id="JMxXBcDuFq-GakgdSsCB-30" value="" style="rounded=0;whiteSpace=wrap;html=1;" vertex="1" parent="JMxXBcDuFq-GakgdSsCB-29">
          <mxGeometry width="140" height="60" as="geometry" />
        </mxCell>
        <mxCell id="JMxXBcDuFq-GakgdSsCB-31" value="StocknRollApiService" style="text;strokeColor=none;align=center;fillColor=none;html=1;verticalAlign=middle;whiteSpace=wrap;rounded=0;fontStyle=1" vertex="1" parent="JMxXBcDuFq-GakgdSsCB-29">
          <mxGeometry x="30.333333333333336" y="15" width="70" height="30" as="geometry" />
        </mxCell>
        <mxCell id="JMxXBcDuFq-GakgdSsCB-32" value="" style="group" vertex="1" connectable="0" parent="JMxXBcDuFq-GakgdSsCB-55">
          <mxGeometry x="172" y="43" width="120" height="60" as="geometry" />
        </mxCell>
        <mxCell id="JMxXBcDuFq-GakgdSsCB-33" value="" style="rounded=0;whiteSpace=wrap;html=1;" vertex="1" parent="JMxXBcDuFq-GakgdSsCB-32">
          <mxGeometry width="120" height="60" as="geometry" />
        </mxCell>
        <mxCell id="JMxXBcDuFq-GakgdSsCB-34" value="RetrofitInstance" style="text;strokeColor=none;align=center;fillColor=none;html=1;verticalAlign=middle;whiteSpace=wrap;rounded=0;fontStyle=1" vertex="1" parent="JMxXBcDuFq-GakgdSsCB-32">
          <mxGeometry x="26" y="15" width="60" height="30" as="geometry" />
        </mxCell>
        <mxCell id="JMxXBcDuFq-GakgdSsCB-56" value="findrecipesby&lt;br&gt;criteria" style="shape=folder;fontStyle=1;spacingTop=10;tabWidth=50;tabHeight=17;tabPosition=left;html=1;rounded=0;shadow=0;comic=0;labelBackgroundColor=none;strokeWidth=1;fontFamily=Verdana;fontSize=10;align=center;" vertex="1" parent="1">
          <mxGeometry x="593.5" y="541.5" width="112" height="70" as="geometry" />
        </mxCell>
        <mxCell id="JMxXBcDuFq-GakgdSsCB-57" value="findrecipesby&lt;br&gt;ingredients" style="shape=folder;fontStyle=1;spacingTop=10;tabWidth=50;tabHeight=17;tabPosition=left;html=1;rounded=0;shadow=0;comic=0;labelBackgroundColor=none;strokeWidth=1;fontFamily=Verdana;fontSize=10;align=center;" vertex="1" parent="1">
          <mxGeometry x="733.5" y="541.5" width="112" height="70" as="geometry" />
        </mxCell>
        <mxCell id="JMxXBcDuFq-GakgdSsCB-58" value="inventory" style="shape=folder;fontStyle=1;spacingTop=10;tabWidth=50;tabHeight=17;tabPosition=left;html=1;rounded=0;shadow=0;comic=0;labelBackgroundColor=none;strokeWidth=1;fontFamily=Verdana;fontSize=10;align=center;" vertex="1" parent="1">
          <mxGeometry x="873.5" y="541.5" width="112" height="70" as="geometry" />
        </mxCell>
        <mxCell id="JMxXBcDuFq-GakgdSsCB-59" value="shoppinglist" style="shape=folder;fontStyle=1;spacingTop=10;tabWidth=50;tabHeight=17;tabPosition=left;html=1;rounded=0;shadow=0;comic=0;labelBackgroundColor=none;strokeWidth=1;fontFamily=Verdana;fontSize=10;align=center;" vertex="1" parent="1">
          <mxGeometry x="457.5" y="628.5" width="112" height="70" as="geometry" />
        </mxCell>
        <mxCell id="JMxXBcDuFq-GakgdSsCB-62" value="" style="shape=folder;fontStyle=0;spacingTop=10;tabWidth=194;tabHeight=22;tabPosition=left;html=1;rounded=0;shadow=0;comic=0;labelBackgroundColor=none;strokeWidth=1;fillColor=none;fontFamily=Verdana;fontSize=10;align=center;" vertex="1" parent="1">
          <mxGeometry x="1040" y="13" width="850" height="1060" as="geometry" />
        </mxCell>
        <mxCell id="JMxXBcDuFq-GakgdSsCB-63" value="ui package plan" style="text;html=1;align=left;verticalAlign=top;spacingTop=-4;fontSize=10;fontFamily=Verdana" vertex="1" parent="1">
          <mxGeometry x="1049" y="16" width="130" height="20" as="geometry" />
        </mxCell>
        <mxCell id="JMxXBcDuFq-GakgdSsCB-64" value="" style="group" vertex="1" connectable="0" parent="1">
          <mxGeometry x="1050" y="53" width="230" height="900" as="geometry" />
        </mxCell>
        <mxCell id="JMxXBcDuFq-GakgdSsCB-65" value="&amp;nbsp;" style="text;whiteSpace=wrap;html=1;" vertex="1" parent="JMxXBcDuFq-GakgdSsCB-64">
          <mxGeometry x="40" y="313" width="40" height="40" as="geometry" />
        </mxCell>
        <mxCell id="JMxXBcDuFq-GakgdSsCB-66" value="" style="shape=folder;fontStyle=1;spacingTop=10;tabWidth=123;tabHeight=24;tabPosition=left;html=1;rounded=0;shadow=0;comic=0;labelBackgroundColor=none;strokeWidth=1;fontFamily=Verdana;fontSize=10;align=center;" vertex="1" parent="JMxXBcDuFq-GakgdSsCB-64">
          <mxGeometry y="3" width="230" height="727" as="geometry" />
        </mxCell>
        <mxCell id="JMxXBcDuFq-GakgdSsCB-67" value="" style="triangle;whiteSpace=wrap;html=1;rounded=0;shadow=0;comic=0;labelBackgroundColor=none;strokeWidth=1;fontFamily=Verdana;fontSize=10;align=center;rotation=-90;" vertex="1" parent="JMxXBcDuFq-GakgdSsCB-64">
          <mxGeometry x="100" y="5" width="15" height="20" as="geometry" />
        </mxCell>
        <mxCell id="JMxXBcDuFq-GakgdSsCB-68" value="mainactivity" style="shape=folder;fontStyle=1;spacingTop=10;tabWidth=50;tabHeight=17;tabPosition=left;html=1;rounded=0;shadow=0;comic=0;labelBackgroundColor=none;strokeWidth=1;fontFamily=Verdana;fontSize=10;align=center;" vertex="1" parent="JMxXBcDuFq-GakgdSsCB-64">
          <mxGeometry x="59" y="53" width="112" height="70" as="geometry" />
        </mxCell>
        <mxCell id="JMxXBcDuFq-GakgdSsCB-69" value="addingredient" style="shape=folder;fontStyle=1;spacingTop=10;tabWidth=50;tabHeight=17;tabPosition=left;html=1;rounded=0;shadow=0;comic=0;labelBackgroundColor=none;strokeWidth=1;fontFamily=Verdana;fontSize=10;align=center;" vertex="1" parent="JMxXBcDuFq-GakgdSsCB-64">
          <mxGeometry x="59" y="153" width="112" height="70" as="geometry" />
        </mxCell>
        <mxCell id="JMxXBcDuFq-GakgdSsCB-70" value="findrecipesby&lt;br&gt;ingredients" style="shape=folder;fontStyle=1;spacingTop=10;tabWidth=50;tabHeight=17;tabPosition=left;html=1;rounded=0;shadow=0;comic=0;labelBackgroundColor=none;strokeWidth=1;fontFamily=Verdana;fontSize=10;align=center;" vertex="1" parent="JMxXBcDuFq-GakgdSsCB-64">
          <mxGeometry x="60" y="345" width="112" height="70" as="geometry" />
        </mxCell>
        <mxCell id="JMxXBcDuFq-GakgdSsCB-71" value="ui" style="text;strokeColor=none;align=center;fillColor=none;html=1;verticalAlign=middle;whiteSpace=wrap;rounded=0;" vertex="1" parent="JMxXBcDuFq-GakgdSsCB-64">
          <mxGeometry width="60" height="30" as="geometry" />
        </mxCell>
        <mxCell id="JMxXBcDuFq-GakgdSsCB-72" value="findrecipesby&lt;br&gt;criteria" style="shape=folder;fontStyle=1;spacingTop=10;tabWidth=50;tabHeight=17;tabPosition=left;html=1;rounded=0;shadow=0;comic=0;labelBackgroundColor=none;strokeWidth=1;fontFamily=Verdana;fontSize=10;align=center;" vertex="1" parent="JMxXBcDuFq-GakgdSsCB-64">
          <mxGeometry x="59" y="243" width="112" height="70" as="geometry" />
        </mxCell>
        <mxCell id="JMxXBcDuFq-GakgdSsCB-74" value="inventory" style="shape=folder;fontStyle=1;spacingTop=10;tabWidth=50;tabHeight=17;tabPosition=left;html=1;rounded=0;shadow=0;comic=0;labelBackgroundColor=none;strokeWidth=1;fontFamily=Verdana;fontSize=10;align=center;" vertex="1" parent="JMxXBcDuFq-GakgdSsCB-64">
          <mxGeometry x="60" y="440" width="112" height="70" as="geometry" />
        </mxCell>
        <mxCell id="JMxXBcDuFq-GakgdSsCB-75" value="shoppinglist" style="shape=folder;fontStyle=1;spacingTop=10;tabWidth=50;tabHeight=17;tabPosition=left;html=1;rounded=0;shadow=0;comic=0;labelBackgroundColor=none;strokeWidth=1;fontFamily=Verdana;fontSize=10;align=center;" vertex="1" parent="JMxXBcDuFq-GakgdSsCB-64">
          <mxGeometry x="60" y="630" width="112" height="70" as="geometry" />
        </mxCell>
        <mxCell id="JMxXBcDuFq-GakgdSsCB-189" value="favouriterecipes" style="shape=folder;fontStyle=1;spacingTop=10;tabWidth=50;tabHeight=17;tabPosition=left;html=1;rounded=0;shadow=0;comic=0;labelBackgroundColor=none;strokeWidth=1;fontFamily=Verdana;fontSize=10;align=center;" vertex="1" parent="JMxXBcDuFq-GakgdSsCB-64">
          <mxGeometry x="60" y="535" width="112" height="70" as="geometry" />
        </mxCell>
        <mxCell id="JMxXBcDuFq-GakgdSsCB-108" value="" style="group" vertex="1" connectable="0" parent="1">
          <mxGeometry x="1300" y="53" width="430" height="130" as="geometry" />
        </mxCell>
        <mxCell id="JMxXBcDuFq-GakgdSsCB-76" value="" style="shape=folder;fontStyle=1;spacingTop=10;tabWidth=123;tabHeight=24;tabPosition=left;html=1;rounded=0;shadow=0;comic=0;labelBackgroundColor=none;strokeWidth=1;fontFamily=Verdana;fontSize=10;align=center;" vertex="1" parent="JMxXBcDuFq-GakgdSsCB-108">
          <mxGeometry width="430" height="130" as="geometry" />
        </mxCell>
        <mxCell id="JMxXBcDuFq-GakgdSsCB-77" value="mainactivity" style="text;strokeColor=none;align=center;fillColor=none;html=1;verticalAlign=middle;whiteSpace=wrap;rounded=0;" vertex="1" parent="JMxXBcDuFq-GakgdSsCB-108">
          <mxGeometry x="7" y="-2" width="60" height="30" as="geometry" />
        </mxCell>
        <mxCell id="JMxXBcDuFq-GakgdSsCB-92" value="" style="group" vertex="1" connectable="0" parent="JMxXBcDuFq-GakgdSsCB-108">
          <mxGeometry x="20" y="42" width="120" height="60" as="geometry" />
        </mxCell>
        <mxCell id="JMxXBcDuFq-GakgdSsCB-90" value="" style="rounded=0;whiteSpace=wrap;html=1;" vertex="1" parent="JMxXBcDuFq-GakgdSsCB-92">
          <mxGeometry width="120" height="60" as="geometry" />
        </mxCell>
        <mxCell id="JMxXBcDuFq-GakgdSsCB-91" value="MainActivity" style="text;strokeColor=none;align=center;fillColor=none;html=1;verticalAlign=middle;whiteSpace=wrap;rounded=0;fontStyle=1" vertex="1" parent="JMxXBcDuFq-GakgdSsCB-92">
          <mxGeometry x="30" y="15" width="60" height="30" as="geometry" />
        </mxCell>
        <mxCell id="JMxXBcDuFq-GakgdSsCB-94" value="" style="group" vertex="1" connectable="0" parent="JMxXBcDuFq-GakgdSsCB-108">
          <mxGeometry x="150" y="42" width="120" height="60" as="geometry" />
        </mxCell>
        <mxCell id="JMxXBcDuFq-GakgdSsCB-95" value="" style="rounded=0;whiteSpace=wrap;html=1;" vertex="1" parent="JMxXBcDuFq-GakgdSsCB-94">
          <mxGeometry width="120" height="60" as="geometry" />
        </mxCell>
        <mxCell id="JMxXBcDuFq-GakgdSsCB-96" value="MainActivity&lt;br&gt;ViewModel" style="text;strokeColor=none;align=center;fillColor=none;html=1;verticalAlign=middle;whiteSpace=wrap;rounded=0;fontStyle=1" vertex="1" parent="JMxXBcDuFq-GakgdSsCB-94">
          <mxGeometry x="30" y="15" width="60" height="30" as="geometry" />
        </mxCell>
        <mxCell id="JMxXBcDuFq-GakgdSsCB-101" value="" style="group" vertex="1" connectable="0" parent="JMxXBcDuFq-GakgdSsCB-108">
          <mxGeometry x="280" y="42" width="120" height="60" as="geometry" />
        </mxCell>
        <mxCell id="JMxXBcDuFq-GakgdSsCB-102" value="" style="rounded=0;whiteSpace=wrap;html=1;" vertex="1" parent="JMxXBcDuFq-GakgdSsCB-101">
          <mxGeometry width="120" height="60" as="geometry" />
        </mxCell>
        <mxCell id="JMxXBcDuFq-GakgdSsCB-103" value="MainActivity&lt;br&gt;ClickHandler" style="text;strokeColor=none;align=center;fillColor=none;html=1;verticalAlign=middle;whiteSpace=wrap;rounded=0;fontStyle=1" vertex="1" parent="JMxXBcDuFq-GakgdSsCB-101">
          <mxGeometry x="30" y="15" width="60" height="30" as="geometry" />
        </mxCell>
        <mxCell id="JMxXBcDuFq-GakgdSsCB-109" value="" style="group" vertex="1" connectable="0" parent="1">
          <mxGeometry x="1300" y="913" width="560" height="130" as="geometry" />
        </mxCell>
        <mxCell id="JMxXBcDuFq-GakgdSsCB-110" value="" style="shape=folder;fontStyle=1;spacingTop=10;tabWidth=123;tabHeight=24;tabPosition=left;html=1;rounded=0;shadow=0;comic=0;labelBackgroundColor=none;strokeWidth=1;fontFamily=Verdana;fontSize=10;align=center;" vertex="1" parent="JMxXBcDuFq-GakgdSsCB-109">
          <mxGeometry width="560" height="130" as="geometry" />
        </mxCell>
        <mxCell id="JMxXBcDuFq-GakgdSsCB-111" value="shoppinglist" style="text;strokeColor=none;align=center;fillColor=none;html=1;verticalAlign=middle;whiteSpace=wrap;rounded=0;" vertex="1" parent="JMxXBcDuFq-GakgdSsCB-109">
          <mxGeometry x="14" y="-3" width="60" height="30" as="geometry" />
        </mxCell>
        <mxCell id="JMxXBcDuFq-GakgdSsCB-112" value="" style="group" vertex="1" connectable="0" parent="JMxXBcDuFq-GakgdSsCB-109">
          <mxGeometry x="20" y="42" width="120" height="60" as="geometry" />
        </mxCell>
        <mxCell id="JMxXBcDuFq-GakgdSsCB-113" value="" style="rounded=0;whiteSpace=wrap;html=1;" vertex="1" parent="JMxXBcDuFq-GakgdSsCB-112">
          <mxGeometry width="120" height="60" as="geometry" />
        </mxCell>
        <mxCell id="JMxXBcDuFq-GakgdSsCB-114" value="ShoppingList" style="text;strokeColor=none;align=center;fillColor=none;html=1;verticalAlign=middle;whiteSpace=wrap;rounded=0;fontStyle=1" vertex="1" parent="JMxXBcDuFq-GakgdSsCB-112">
          <mxGeometry x="30" y="15" width="60" height="30" as="geometry" />
        </mxCell>
        <mxCell id="JMxXBcDuFq-GakgdSsCB-115" value="" style="group" vertex="1" connectable="0" parent="JMxXBcDuFq-GakgdSsCB-109">
          <mxGeometry x="150" y="42" width="120" height="60" as="geometry" />
        </mxCell>
        <mxCell id="JMxXBcDuFq-GakgdSsCB-116" value="" style="rounded=0;whiteSpace=wrap;html=1;" vertex="1" parent="JMxXBcDuFq-GakgdSsCB-115">
          <mxGeometry width="120" height="60" as="geometry" />
        </mxCell>
        <mxCell id="JMxXBcDuFq-GakgdSsCB-117" value="ShoppingList&lt;br&gt;ViewModel" style="text;strokeColor=none;align=center;fillColor=none;html=1;verticalAlign=middle;whiteSpace=wrap;rounded=0;fontStyle=1" vertex="1" parent="JMxXBcDuFq-GakgdSsCB-115">
          <mxGeometry x="30" y="15" width="60" height="30" as="geometry" />
        </mxCell>
        <mxCell id="JMxXBcDuFq-GakgdSsCB-118" value="" style="group" vertex="1" connectable="0" parent="JMxXBcDuFq-GakgdSsCB-109">
          <mxGeometry x="280" y="42" width="120" height="60" as="geometry" />
        </mxCell>
        <mxCell id="JMxXBcDuFq-GakgdSsCB-119" value="" style="rounded=0;whiteSpace=wrap;html=1;" vertex="1" parent="JMxXBcDuFq-GakgdSsCB-118">
          <mxGeometry width="120" height="60" as="geometry" />
        </mxCell>
        <mxCell id="JMxXBcDuFq-GakgdSsCB-120" value="ShoppingList&lt;br&gt;ClickHandler" style="text;strokeColor=none;align=center;fillColor=none;html=1;verticalAlign=middle;whiteSpace=wrap;rounded=0;fontStyle=1" vertex="1" parent="JMxXBcDuFq-GakgdSsCB-118">
          <mxGeometry x="30" y="15" width="60" height="30" as="geometry" />
        </mxCell>
        <mxCell id="JMxXBcDuFq-GakgdSsCB-124" value="" style="group" vertex="1" connectable="0" parent="JMxXBcDuFq-GakgdSsCB-109">
          <mxGeometry x="410" y="42" width="120" height="60" as="geometry" />
        </mxCell>
        <mxCell id="JMxXBcDuFq-GakgdSsCB-125" value="" style="rounded=0;whiteSpace=wrap;html=1;" vertex="1" parent="JMxXBcDuFq-GakgdSsCB-124">
          <mxGeometry width="120" height="60" as="geometry" />
        </mxCell>
        <mxCell id="JMxXBcDuFq-GakgdSsCB-126" value="IngredientAdapter" style="text;strokeColor=none;align=center;fillColor=none;html=1;verticalAlign=middle;whiteSpace=wrap;rounded=0;fontStyle=1" vertex="1" parent="JMxXBcDuFq-GakgdSsCB-124">
          <mxGeometry x="30" y="15" width="60" height="30" as="geometry" />
        </mxCell>
        <mxCell id="JMxXBcDuFq-GakgdSsCB-127" value="" style="group" vertex="1" connectable="0" parent="1">
          <mxGeometry x="1300" y="333" width="560" height="130" as="geometry" />
        </mxCell>
        <mxCell id="JMxXBcDuFq-GakgdSsCB-128" value="" style="shape=folder;fontStyle=1;spacingTop=10;tabWidth=123;tabHeight=24;tabPosition=left;html=1;rounded=0;shadow=0;comic=0;labelBackgroundColor=none;strokeWidth=1;fontFamily=Verdana;fontSize=10;align=center;" vertex="1" parent="JMxXBcDuFq-GakgdSsCB-127">
          <mxGeometry width="560" height="130" as="geometry" />
        </mxCell>
        <mxCell id="JMxXBcDuFq-GakgdSsCB-129" value="findrecipesbycriteria" style="text;strokeColor=none;align=center;fillColor=none;html=1;verticalAlign=middle;whiteSpace=wrap;rounded=0;" vertex="1" parent="JMxXBcDuFq-GakgdSsCB-127">
          <mxGeometry x="28" y="-3" width="60" height="30" as="geometry" />
        </mxCell>
        <mxCell id="JMxXBcDuFq-GakgdSsCB-130" value="" style="group" vertex="1" connectable="0" parent="JMxXBcDuFq-GakgdSsCB-127">
          <mxGeometry x="20" y="42" width="120" height="60" as="geometry" />
        </mxCell>
        <mxCell id="JMxXBcDuFq-GakgdSsCB-131" value="" style="rounded=0;whiteSpace=wrap;html=1;" vertex="1" parent="JMxXBcDuFq-GakgdSsCB-130">
          <mxGeometry width="120" height="60" as="geometry" />
        </mxCell>
        <mxCell id="JMxXBcDuFq-GakgdSsCB-132" value="FindRecipesBy&lt;br&gt;Criteria" style="text;strokeColor=none;align=center;fillColor=none;html=1;verticalAlign=middle;whiteSpace=wrap;rounded=0;fontStyle=1" vertex="1" parent="JMxXBcDuFq-GakgdSsCB-130">
          <mxGeometry x="30" y="15" width="60" height="30" as="geometry" />
        </mxCell>
        <mxCell id="JMxXBcDuFq-GakgdSsCB-133" value="" style="group" vertex="1" connectable="0" parent="JMxXBcDuFq-GakgdSsCB-127">
          <mxGeometry x="150" y="42" width="120" height="60" as="geometry" />
        </mxCell>
        <mxCell id="JMxXBcDuFq-GakgdSsCB-134" value="" style="rounded=0;whiteSpace=wrap;html=1;" vertex="1" parent="JMxXBcDuFq-GakgdSsCB-133">
          <mxGeometry width="120" height="60" as="geometry" />
        </mxCell>
        <mxCell id="JMxXBcDuFq-GakgdSsCB-135" value="FindRecipesBy&lt;br&gt;Criteria&lt;br&gt;ViewModel" style="text;strokeColor=none;align=center;fillColor=none;html=1;verticalAlign=middle;whiteSpace=wrap;rounded=0;fontStyle=1" vertex="1" parent="JMxXBcDuFq-GakgdSsCB-133">
          <mxGeometry x="30" y="15" width="60" height="30" as="geometry" />
        </mxCell>
        <mxCell id="JMxXBcDuFq-GakgdSsCB-136" value="" style="group" vertex="1" connectable="0" parent="JMxXBcDuFq-GakgdSsCB-127">
          <mxGeometry x="280" y="42" width="120" height="60" as="geometry" />
        </mxCell>
        <mxCell id="JMxXBcDuFq-GakgdSsCB-137" value="" style="rounded=0;whiteSpace=wrap;html=1;" vertex="1" parent="JMxXBcDuFq-GakgdSsCB-136">
          <mxGeometry width="120" height="60" as="geometry" />
        </mxCell>
        <mxCell id="JMxXBcDuFq-GakgdSsCB-138" value="FindRecipesBy&lt;br&gt;Criteria&lt;br&gt;ClickHandler" style="text;strokeColor=none;align=center;fillColor=none;html=1;verticalAlign=middle;whiteSpace=wrap;rounded=0;fontStyle=1" vertex="1" parent="JMxXBcDuFq-GakgdSsCB-136">
          <mxGeometry x="30" y="15" width="60" height="30" as="geometry" />
        </mxCell>
        <mxCell id="JMxXBcDuFq-GakgdSsCB-139" value="" style="group" vertex="1" connectable="0" parent="JMxXBcDuFq-GakgdSsCB-127">
          <mxGeometry x="410" y="42" width="120" height="60" as="geometry" />
        </mxCell>
        <mxCell id="JMxXBcDuFq-GakgdSsCB-140" value="" style="rounded=0;whiteSpace=wrap;html=1;" vertex="1" parent="JMxXBcDuFq-GakgdSsCB-139">
          <mxGeometry width="120" height="60" as="geometry" />
        </mxCell>
        <mxCell id="JMxXBcDuFq-GakgdSsCB-141" value="RecipeAdapter" style="text;strokeColor=none;align=center;fillColor=none;html=1;verticalAlign=middle;whiteSpace=wrap;rounded=0;fontStyle=1" vertex="1" parent="JMxXBcDuFq-GakgdSsCB-139">
          <mxGeometry x="30" y="15" width="60" height="30" as="geometry" />
        </mxCell>
        <mxCell id="JMxXBcDuFq-GakgdSsCB-142" value="" style="group" vertex="1" connectable="0" parent="1">
          <mxGeometry x="1300" y="473" width="560" height="130" as="geometry" />
        </mxCell>
        <mxCell id="JMxXBcDuFq-GakgdSsCB-143" value="" style="shape=folder;fontStyle=1;spacingTop=10;tabWidth=150;tabHeight=30;tabPosition=left;html=1;rounded=0;shadow=0;comic=0;labelBackgroundColor=none;strokeWidth=1;fontFamily=Verdana;fontSize=10;align=center;" vertex="1" parent="JMxXBcDuFq-GakgdSsCB-142">
          <mxGeometry width="560" height="130" as="geometry" />
        </mxCell>
        <mxCell id="JMxXBcDuFq-GakgdSsCB-144" value="findrecipesbyingredients" style="text;strokeColor=none;align=center;fillColor=none;html=1;verticalAlign=middle;whiteSpace=wrap;rounded=0;" vertex="1" parent="JMxXBcDuFq-GakgdSsCB-142">
          <mxGeometry x="39" y="-2" width="60" height="30" as="geometry" />
        </mxCell>
        <mxCell id="JMxXBcDuFq-GakgdSsCB-145" value="" style="group" vertex="1" connectable="0" parent="JMxXBcDuFq-GakgdSsCB-142">
          <mxGeometry x="20" y="42" width="120" height="60" as="geometry" />
        </mxCell>
        <mxCell id="JMxXBcDuFq-GakgdSsCB-146" value="" style="rounded=0;whiteSpace=wrap;html=1;" vertex="1" parent="JMxXBcDuFq-GakgdSsCB-145">
          <mxGeometry width="120" height="60" as="geometry" />
        </mxCell>
        <mxCell id="JMxXBcDuFq-GakgdSsCB-147" value="FindRecipesBy&lt;br&gt;Ingredients" style="text;strokeColor=none;align=center;fillColor=none;html=1;verticalAlign=middle;whiteSpace=wrap;rounded=0;fontStyle=1" vertex="1" parent="JMxXBcDuFq-GakgdSsCB-145">
          <mxGeometry x="30" y="15" width="60" height="30" as="geometry" />
        </mxCell>
        <mxCell id="JMxXBcDuFq-GakgdSsCB-148" value="" style="group" vertex="1" connectable="0" parent="JMxXBcDuFq-GakgdSsCB-142">
          <mxGeometry x="150" y="42" width="120" height="60" as="geometry" />
        </mxCell>
        <mxCell id="JMxXBcDuFq-GakgdSsCB-149" value="" style="rounded=0;whiteSpace=wrap;html=1;" vertex="1" parent="JMxXBcDuFq-GakgdSsCB-148">
          <mxGeometry width="120" height="60" as="geometry" />
        </mxCell>
        <mxCell id="JMxXBcDuFq-GakgdSsCB-150" value="FindRecipesBy&lt;br&gt;Ingredients&lt;br&gt;ViewModel" style="text;strokeColor=none;align=center;fillColor=none;html=1;verticalAlign=middle;whiteSpace=wrap;rounded=0;fontStyle=1" vertex="1" parent="JMxXBcDuFq-GakgdSsCB-148">
          <mxGeometry x="30" y="15" width="60" height="30" as="geometry" />
        </mxCell>
        <mxCell id="JMxXBcDuFq-GakgdSsCB-151" value="" style="group" vertex="1" connectable="0" parent="JMxXBcDuFq-GakgdSsCB-142">
          <mxGeometry x="280" y="42" width="120" height="60" as="geometry" />
        </mxCell>
        <mxCell id="JMxXBcDuFq-GakgdSsCB-152" value="" style="rounded=0;whiteSpace=wrap;html=1;" vertex="1" parent="JMxXBcDuFq-GakgdSsCB-151">
          <mxGeometry width="120" height="60" as="geometry" />
        </mxCell>
        <mxCell id="JMxXBcDuFq-GakgdSsCB-153" value="FindRecipesBy&lt;br&gt;Ingredients&lt;br&gt;ClickHandler" style="text;strokeColor=none;align=center;fillColor=none;html=1;verticalAlign=middle;whiteSpace=wrap;rounded=0;fontStyle=1" vertex="1" parent="JMxXBcDuFq-GakgdSsCB-151">
          <mxGeometry x="30" y="15" width="60" height="30" as="geometry" />
        </mxCell>
        <mxCell id="JMxXBcDuFq-GakgdSsCB-154" value="" style="group" vertex="1" connectable="0" parent="JMxXBcDuFq-GakgdSsCB-142">
          <mxGeometry x="410" y="42" width="120" height="60" as="geometry" />
        </mxCell>
        <mxCell id="JMxXBcDuFq-GakgdSsCB-155" value="" style="rounded=0;whiteSpace=wrap;html=1;" vertex="1" parent="JMxXBcDuFq-GakgdSsCB-154">
          <mxGeometry width="120" height="60" as="geometry" />
        </mxCell>
        <mxCell id="JMxXBcDuFq-GakgdSsCB-156" value="RecipeAdapter" style="text;strokeColor=none;align=center;fillColor=none;html=1;verticalAlign=middle;whiteSpace=wrap;rounded=0;fontStyle=1" vertex="1" parent="JMxXBcDuFq-GakgdSsCB-154">
          <mxGeometry x="30" y="15" width="60" height="30" as="geometry" />
        </mxCell>
        <mxCell id="JMxXBcDuFq-GakgdSsCB-157" value="" style="group" vertex="1" connectable="0" parent="1">
          <mxGeometry x="1300" y="191.5" width="560" height="130" as="geometry" />
        </mxCell>
        <mxCell id="JMxXBcDuFq-GakgdSsCB-158" value="" style="shape=folder;fontStyle=1;spacingTop=10;tabWidth=123;tabHeight=24;tabPosition=left;html=1;rounded=0;shadow=0;comic=0;labelBackgroundColor=none;strokeWidth=1;fontFamily=Verdana;fontSize=10;align=center;" vertex="1" parent="JMxXBcDuFq-GakgdSsCB-157">
          <mxGeometry width="560" height="130" as="geometry" />
        </mxCell>
        <mxCell id="JMxXBcDuFq-GakgdSsCB-159" value="addingredient" style="text;strokeColor=none;align=center;fillColor=none;html=1;verticalAlign=middle;whiteSpace=wrap;rounded=0;" vertex="1" parent="JMxXBcDuFq-GakgdSsCB-157">
          <mxGeometry x="14" y="-3" width="60" height="30" as="geometry" />
        </mxCell>
        <mxCell id="JMxXBcDuFq-GakgdSsCB-160" value="" style="group" vertex="1" connectable="0" parent="JMxXBcDuFq-GakgdSsCB-157">
          <mxGeometry x="20" y="42" width="120" height="60" as="geometry" />
        </mxCell>
        <mxCell id="JMxXBcDuFq-GakgdSsCB-161" value="" style="rounded=0;whiteSpace=wrap;html=1;" vertex="1" parent="JMxXBcDuFq-GakgdSsCB-160">
          <mxGeometry width="120" height="60" as="geometry" />
        </mxCell>
        <mxCell id="JMxXBcDuFq-GakgdSsCB-162" value="AddIngredient" style="text;strokeColor=none;align=center;fillColor=none;html=1;verticalAlign=middle;whiteSpace=wrap;rounded=0;fontStyle=1" vertex="1" parent="JMxXBcDuFq-GakgdSsCB-160">
          <mxGeometry x="30" y="15" width="60" height="30" as="geometry" />
        </mxCell>
        <mxCell id="JMxXBcDuFq-GakgdSsCB-163" value="" style="group" vertex="1" connectable="0" parent="JMxXBcDuFq-GakgdSsCB-157">
          <mxGeometry x="150" y="42" width="120" height="60" as="geometry" />
        </mxCell>
        <mxCell id="JMxXBcDuFq-GakgdSsCB-164" value="" style="rounded=0;whiteSpace=wrap;html=1;" vertex="1" parent="JMxXBcDuFq-GakgdSsCB-163">
          <mxGeometry width="120" height="60" as="geometry" />
        </mxCell>
        <mxCell id="JMxXBcDuFq-GakgdSsCB-165" value="AddIngredient&lt;br&gt;ViewModel" style="text;strokeColor=none;align=center;fillColor=none;html=1;verticalAlign=middle;whiteSpace=wrap;rounded=0;fontStyle=1" vertex="1" parent="JMxXBcDuFq-GakgdSsCB-163">
          <mxGeometry x="30" y="15" width="60" height="30" as="geometry" />
        </mxCell>
        <mxCell id="JMxXBcDuFq-GakgdSsCB-166" value="" style="group" vertex="1" connectable="0" parent="JMxXBcDuFq-GakgdSsCB-157">
          <mxGeometry x="280" y="42" width="120" height="60" as="geometry" />
        </mxCell>
        <mxCell id="JMxXBcDuFq-GakgdSsCB-167" value="" style="rounded=0;whiteSpace=wrap;html=1;" vertex="1" parent="JMxXBcDuFq-GakgdSsCB-166">
          <mxGeometry width="120" height="60" as="geometry" />
        </mxCell>
        <mxCell id="JMxXBcDuFq-GakgdSsCB-168" value="AddIngredient&lt;br&gt;ClickHandler" style="text;strokeColor=none;align=center;fillColor=none;html=1;verticalAlign=middle;whiteSpace=wrap;rounded=0;fontStyle=1" vertex="1" parent="JMxXBcDuFq-GakgdSsCB-166">
          <mxGeometry x="30" y="15" width="60" height="30" as="geometry" />
        </mxCell>
        <mxCell id="JMxXBcDuFq-GakgdSsCB-169" value="" style="group" vertex="1" connectable="0" parent="JMxXBcDuFq-GakgdSsCB-157">
          <mxGeometry x="410" y="42" width="120" height="60" as="geometry" />
        </mxCell>
        <mxCell id="JMxXBcDuFq-GakgdSsCB-170" value="" style="rounded=0;whiteSpace=wrap;html=1;" vertex="1" parent="JMxXBcDuFq-GakgdSsCB-169">
          <mxGeometry width="120" height="60" as="geometry" />
        </mxCell>
        <mxCell id="JMxXBcDuFq-GakgdSsCB-171" value="IngredientAdapter" style="text;strokeColor=none;align=center;fillColor=none;html=1;verticalAlign=middle;whiteSpace=wrap;rounded=0;fontStyle=1" vertex="1" parent="JMxXBcDuFq-GakgdSsCB-169">
          <mxGeometry x="30" y="15" width="60" height="30" as="geometry" />
        </mxCell>
        <mxCell id="JMxXBcDuFq-GakgdSsCB-172" value="" style="group" vertex="1" connectable="0" parent="1">
          <mxGeometry x="1300" y="621.5" width="560" height="130" as="geometry" />
        </mxCell>
        <mxCell id="JMxXBcDuFq-GakgdSsCB-173" value="" style="shape=folder;fontStyle=1;spacingTop=10;tabWidth=123;tabHeight=24;tabPosition=left;html=1;rounded=0;shadow=0;comic=0;labelBackgroundColor=none;strokeWidth=1;fontFamily=Verdana;fontSize=10;align=center;" vertex="1" parent="JMxXBcDuFq-GakgdSsCB-172">
          <mxGeometry width="560" height="130" as="geometry" />
        </mxCell>
        <mxCell id="JMxXBcDuFq-GakgdSsCB-174" value="inventory" style="text;strokeColor=none;align=center;fillColor=none;html=1;verticalAlign=middle;whiteSpace=wrap;rounded=0;" vertex="1" parent="JMxXBcDuFq-GakgdSsCB-172">
          <mxGeometry x="14" y="-3" width="60" height="30" as="geometry" />
        </mxCell>
        <mxCell id="JMxXBcDuFq-GakgdSsCB-175" value="" style="group" vertex="1" connectable="0" parent="JMxXBcDuFq-GakgdSsCB-172">
          <mxGeometry x="20" y="42" width="120" height="60" as="geometry" />
        </mxCell>
        <mxCell id="JMxXBcDuFq-GakgdSsCB-176" value="" style="rounded=0;whiteSpace=wrap;html=1;" vertex="1" parent="JMxXBcDuFq-GakgdSsCB-175">
          <mxGeometry width="120" height="60" as="geometry" />
        </mxCell>
        <mxCell id="JMxXBcDuFq-GakgdSsCB-177" value="Inventory" style="text;strokeColor=none;align=center;fillColor=none;html=1;verticalAlign=middle;whiteSpace=wrap;rounded=0;fontStyle=1" vertex="1" parent="JMxXBcDuFq-GakgdSsCB-175">
          <mxGeometry x="30" y="15" width="60" height="30" as="geometry" />
        </mxCell>
        <mxCell id="JMxXBcDuFq-GakgdSsCB-178" value="" style="group" vertex="1" connectable="0" parent="JMxXBcDuFq-GakgdSsCB-172">
          <mxGeometry x="150" y="42" width="120" height="60" as="geometry" />
        </mxCell>
        <mxCell id="JMxXBcDuFq-GakgdSsCB-179" value="" style="rounded=0;whiteSpace=wrap;html=1;" vertex="1" parent="JMxXBcDuFq-GakgdSsCB-178">
          <mxGeometry width="120" height="60" as="geometry" />
        </mxCell>
        <mxCell id="JMxXBcDuFq-GakgdSsCB-180" value="Inventory&lt;br&gt;ViewModel" style="text;strokeColor=none;align=center;fillColor=none;html=1;verticalAlign=middle;whiteSpace=wrap;rounded=0;fontStyle=1" vertex="1" parent="JMxXBcDuFq-GakgdSsCB-178">
          <mxGeometry x="30" y="15" width="60" height="30" as="geometry" />
        </mxCell>
        <mxCell id="JMxXBcDuFq-GakgdSsCB-181" value="" style="group" vertex="1" connectable="0" parent="JMxXBcDuFq-GakgdSsCB-172">
          <mxGeometry x="280" y="42" width="120" height="60" as="geometry" />
        </mxCell>
        <mxCell id="JMxXBcDuFq-GakgdSsCB-182" value="" style="rounded=0;whiteSpace=wrap;html=1;" vertex="1" parent="JMxXBcDuFq-GakgdSsCB-181">
          <mxGeometry width="120" height="60" as="geometry" />
        </mxCell>
        <mxCell id="JMxXBcDuFq-GakgdSsCB-183" value="Inventory&lt;br&gt;ClickHandler" style="text;strokeColor=none;align=center;fillColor=none;html=1;verticalAlign=middle;whiteSpace=wrap;rounded=0;fontStyle=1" vertex="1" parent="JMxXBcDuFq-GakgdSsCB-181">
          <mxGeometry x="30" y="15" width="60" height="30" as="geometry" />
        </mxCell>
        <mxCell id="JMxXBcDuFq-GakgdSsCB-184" value="" style="group" vertex="1" connectable="0" parent="JMxXBcDuFq-GakgdSsCB-172">
          <mxGeometry x="410" y="42" width="120" height="60" as="geometry" />
        </mxCell>
        <mxCell id="JMxXBcDuFq-GakgdSsCB-185" value="" style="rounded=0;whiteSpace=wrap;html=1;" vertex="1" parent="JMxXBcDuFq-GakgdSsCB-184">
          <mxGeometry width="120" height="60" as="geometry" />
        </mxCell>
        <mxCell id="JMxXBcDuFq-GakgdSsCB-186" value="IngredientAdapter" style="text;strokeColor=none;align=center;fillColor=none;html=1;verticalAlign=middle;whiteSpace=wrap;rounded=0;fontStyle=1" vertex="1" parent="JMxXBcDuFq-GakgdSsCB-184">
          <mxGeometry x="30" y="15" width="60" height="30" as="geometry" />
        </mxCell>
        <mxCell id="JMxXBcDuFq-GakgdSsCB-190" value="favouriterecipes" style="shape=folder;fontStyle=1;spacingTop=10;tabWidth=50;tabHeight=17;tabPosition=left;html=1;rounded=0;shadow=0;comic=0;labelBackgroundColor=none;strokeWidth=1;fontFamily=Verdana;fontSize=10;align=center;" vertex="1" parent="1">
          <mxGeometry x="320" y="628.5" width="112" height="70" as="geometry" />
        </mxCell>
        <mxCell id="JMxXBcDuFq-GakgdSsCB-191" value="" style="group" vertex="1" connectable="0" parent="1">
          <mxGeometry x="1300" y="763" width="560" height="130" as="geometry" />
        </mxCell>
        <mxCell id="JMxXBcDuFq-GakgdSsCB-192" value="" style="shape=folder;fontStyle=1;spacingTop=10;tabWidth=123;tabHeight=24;tabPosition=left;html=1;rounded=0;shadow=0;comic=0;labelBackgroundColor=none;strokeWidth=1;fontFamily=Verdana;fontSize=10;align=center;" vertex="1" parent="JMxXBcDuFq-GakgdSsCB-191">
          <mxGeometry width="560" height="130" as="geometry" />
        </mxCell>
        <mxCell id="JMxXBcDuFq-GakgdSsCB-193" value="favouriterecipes" style="text;strokeColor=none;align=center;fillColor=none;html=1;verticalAlign=middle;whiteSpace=wrap;rounded=0;" vertex="1" parent="JMxXBcDuFq-GakgdSsCB-191">
          <mxGeometry x="24" y="-3" width="60" height="30" as="geometry" />
        </mxCell>
        <mxCell id="JMxXBcDuFq-GakgdSsCB-194" value="" style="group" vertex="1" connectable="0" parent="JMxXBcDuFq-GakgdSsCB-191">
          <mxGeometry x="20" y="42" width="120" height="60" as="geometry" />
        </mxCell>
        <mxCell id="JMxXBcDuFq-GakgdSsCB-195" value="" style="rounded=0;whiteSpace=wrap;html=1;" vertex="1" parent="JMxXBcDuFq-GakgdSsCB-194">
          <mxGeometry width="120" height="60" as="geometry" />
        </mxCell>
        <mxCell id="JMxXBcDuFq-GakgdSsCB-196" value="FavouriteRecipes" style="text;strokeColor=none;align=center;fillColor=none;html=1;verticalAlign=middle;whiteSpace=wrap;rounded=0;fontStyle=1" vertex="1" parent="JMxXBcDuFq-GakgdSsCB-194">
          <mxGeometry x="30" y="15" width="60" height="30" as="geometry" />
        </mxCell>
        <mxCell id="JMxXBcDuFq-GakgdSsCB-197" value="" style="group" vertex="1" connectable="0" parent="JMxXBcDuFq-GakgdSsCB-191">
          <mxGeometry x="150" y="42" width="120" height="60" as="geometry" />
        </mxCell>
        <mxCell id="JMxXBcDuFq-GakgdSsCB-198" value="" style="rounded=0;whiteSpace=wrap;html=1;" vertex="1" parent="JMxXBcDuFq-GakgdSsCB-197">
          <mxGeometry width="120" height="60" as="geometry" />
        </mxCell>
        <mxCell id="JMxXBcDuFq-GakgdSsCB-199" value="FavouriteRecipes&lt;br&gt;ViewModel" style="text;strokeColor=none;align=center;fillColor=none;html=1;verticalAlign=middle;whiteSpace=wrap;rounded=0;fontStyle=1" vertex="1" parent="JMxXBcDuFq-GakgdSsCB-197">
          <mxGeometry x="30" y="15" width="60" height="30" as="geometry" />
        </mxCell>
        <mxCell id="JMxXBcDuFq-GakgdSsCB-200" value="" style="group" vertex="1" connectable="0" parent="JMxXBcDuFq-GakgdSsCB-191">
          <mxGeometry x="280" y="42" width="120" height="60" as="geometry" />
        </mxCell>
        <mxCell id="JMxXBcDuFq-GakgdSsCB-201" value="" style="rounded=0;whiteSpace=wrap;html=1;" vertex="1" parent="JMxXBcDuFq-GakgdSsCB-200">
          <mxGeometry width="120" height="60" as="geometry" />
        </mxCell>
        <mxCell id="JMxXBcDuFq-GakgdSsCB-202" value="FavouriteRecipes&lt;br&gt;ClickHandler" style="text;strokeColor=none;align=center;fillColor=none;html=1;verticalAlign=middle;whiteSpace=wrap;rounded=0;fontStyle=1" vertex="1" parent="JMxXBcDuFq-GakgdSsCB-200">
          <mxGeometry x="30" y="15" width="60" height="30" as="geometry" />
        </mxCell>
        <mxCell id="JMxXBcDuFq-GakgdSsCB-203" value="" style="group" vertex="1" connectable="0" parent="JMxXBcDuFq-GakgdSsCB-191">
          <mxGeometry x="410" y="42" width="120" height="60" as="geometry" />
        </mxCell>
        <mxCell id="JMxXBcDuFq-GakgdSsCB-204" value="" style="rounded=0;whiteSpace=wrap;html=1;" vertex="1" parent="JMxXBcDuFq-GakgdSsCB-203">
          <mxGeometry width="120" height="60" as="geometry" />
        </mxCell>
        <mxCell id="JMxXBcDuFq-GakgdSsCB-205" value="RecipeAdapter" style="text;strokeColor=none;align=center;fillColor=none;html=1;verticalAlign=middle;whiteSpace=wrap;rounded=0;fontStyle=1" vertex="1" parent="JMxXBcDuFq-GakgdSsCB-203">
          <mxGeometry x="30" y="15" width="60" height="30" as="geometry" />
        </mxCell>
      </root>
    </mxGraphModel>
  </diagram>
</mxfile>
